<svg xmlns="http://www.w3.org/2000/svg" width="25" height="25" viewBox="0 0 25 25">
  <path id="skype.svg" class="cls-1" d="M447.5,3158a12.5,12.5,0,1,0,12.5,12.5A12.5,12.5,0,0,0,447.5,3158Zm0,23.05a10.55,10.55,0,1,1,10.547-10.55A10.553,10.553,0,0,1,447.5,3181.05Zm5.407-10.54a5.575,5.575,0,0,0-5.573-5.57,5.845,5.845,0,0,0-.843.07,3.179,3.179,0,0,0-5.241,2.42,3.15,3.15,0,0,0,.64,1.9,5.577,5.577,0,0,0,5.444,6.76,6.216,6.216,0,0,0,1.153-.12,3.178,3.178,0,0,0,5.263-2.4,3.135,3.135,0,0,0-.913-2.22A5.556,5.556,0,0,0,452.907,3170.51Zm-2.973,2.43a2.107,2.107,0,0,1-.963.73,3.822,3.822,0,0,1-1.5.27,3.645,3.645,0,0,1-1.721-.36,2.3,2.3,0,0,1-.781-0.7,1.487,1.487,0,0,1-.3-0.84,0.539,0.539,0,0,1,.18-0.41,0.616,0.616,0,0,1,.459-0.17,0.559,0.559,0,0,1,.382.13,1.058,1.058,0,0,1,.266.39,2.548,2.548,0,0,0,.291.52,1.14,1.14,0,0,0,.44.34,1.74,1.74,0,0,0,.744.14,1.722,1.722,0,0,0,1.031-.28,0.79,0.79,0,0,0,.4-0.67,0.7,0.7,0,0,0-.214-0.53,1.435,1.435,0,0,0-.553-0.3c-0.226-.07-0.526-0.15-0.906-0.23a7.692,7.692,0,0,1-1.27-.38,2.089,2.089,0,0,1-.812-0.6,1.451,1.451,0,0,1-.3-0.94,1.539,1.539,0,0,1,.317-0.95,2.033,2.033,0,0,1,.918-0.63,4.014,4.014,0,0,1,1.412-.23,3.735,3.735,0,0,1,1.122.15,2.537,2.537,0,0,1,.785.39,1.769,1.769,0,0,1,.457.52,1.094,1.094,0,0,1,.144.52,0.613,0.613,0,0,1-.63.61,0.521,0.521,0,0,1-.372-0.11,1.442,1.442,0,0,1-.276-0.37,1.752,1.752,0,0,0-.462-0.57,1.418,1.418,0,0,0-.865-0.2,1.582,1.582,0,0,0-.89.22,0.641,0.641,0,0,0-.339.53,0.516,0.516,0,0,0,.115.34,0.8,0.8,0,0,0,.318.24,2.157,2.157,0,0,0,.408.16c0.137,0.04.365,0.1,0.682,0.17,0.4,0.09.756,0.18,1.078,0.28a3.571,3.571,0,0,1,.822.38,1.571,1.571,0,0,1,.528.56,1.649,1.649,0,0,1,.19.83A1.776,1.776,0,0,1,449.934,3172.94Z" transform="translate(-435 -3158)"/>
</svg>
